<?xml version="1.0" encoding="UTF-8" standalone="no"?>
<!-- Generator: Adobe Illustrator 23.1.1, SVG Export Plug-In . SVG Version: 6.00 Build 0)  -->

<svg
   version="1.1"
   x="0px"
   y="0px"
   viewBox="0 0 468.11563 293.00064"
   xml:space="preserve"
   id="svg322"
   sodipodi:docname="nutshell.svg"
   width="468.11563"
   height="293.00064"
   inkscape:version="1.1.1 (3bf5ae0d25, 2021-09-20)"
   xmlns:inkscape="http://www.inkscape.org/namespaces/inkscape"
   xmlns:sodipodi="http://sodipodi.sourceforge.net/DTD/sodipodi-0.dtd"
   xmlns="http://www.w3.org/2000/svg"
   xmlns:svg="http://www.w3.org/2000/svg"><defs
   id="defs326" /><sodipodi:namedview
   id="namedview324"
   pagecolor="#ffffff"
   bordercolor="#666666"
   borderopacity="1.0"
   inkscape:pageshadow="2"
   inkscape:pageopacity="0.0"
   inkscape:pagecheckerboard="0"
   showgrid="false"
   inkscape:zoom="1.6923799"
   inkscape:cx="234.28546"
   inkscape:cy="150.67539"
   inkscape:window-width="2520"
   inkscape:window-height="1411"
   inkscape:window-x="0"
   inkscape:window-y="0"
   inkscape:window-maximized="1"
   inkscape:current-layer="svg322" />
<style
   type="text/css"
   id="style2">
	.st0{fill:none;stroke:#C4C5C5;stroke-miterlimit:11.338582;}
	.st1{fill:none;stroke:#C4C5C5;stroke-miterlimit:11.338582;stroke-dasharray:9.736783,4.868392;}
	.st2{fill:none;stroke:#000000;stroke-miterlimit:11.338582;}
	.st3{font-family:'Helvetica-Bold';}
	.st4{font-size:10px;}
	.st5{font-family:'Helvetica';}
	.st6{fill:none;stroke:#9B9B9B;stroke-linecap:square;stroke-miterlimit:10;}
	.st7{fill:none;stroke:#000000;stroke-linecap:square;stroke-miterlimit:10;}
	.st8{font-size:9px;}
	.st9{fill:#9B9B9B;}
	.st10{fill:#D9D9D9;stroke:#D9D9D9;stroke-width:0.5;stroke-linejoin:round;stroke-miterlimit:11.338582;}
	.st11{fill:#B0B1B1;stroke:#B0B1B1;stroke-width:0.5;stroke-linejoin:round;stroke-miterlimit:11.338582;}
	.st12{fill:#9B9B9B;stroke:#9B9B9B;stroke-width:0.5;stroke-linejoin:round;stroke-miterlimit:11.338582;}
	.st13{stroke:#000000;stroke-width:0.6;stroke-linejoin:round;stroke-miterlimit:11.338582;}
	
		.st14{fill-rule:evenodd;clip-rule:evenodd;fill:#0A0A0D;stroke:#0A0A0D;stroke-width:0.972283;stroke-linejoin:round;stroke-miterlimit:11.338582;}
	.st15{fill:none;stroke:#000000;stroke-width:3;stroke-linecap:square;stroke-miterlimit:10;}
	.st16{fill:#D9D9D9;}
	.st17{fill:#BABBBB;}
	.st18{fill:#7A7A7A;}
	.st19{fill:#D9D9D9;stroke:#000000;stroke-width:0.5;stroke-miterlimit:11.338582;}
	.st20{fill:none;stroke:#000000;stroke-width:0.5;stroke-linejoin:round;}
</style>
<g
   id="Ebene_5_Kopie"
   transform="translate(-63.372787,-59.150875)">
	<line
   class="st0"
   x1="297.43057"
   y1="351.65152"
   x2="180.65169"
   y2="351.65152"
   id="line4" />
	<polyline
   class="st0"
   points="180.651688,351.65152 63.872787,351.65152 63.872787,101.100327  "
   id="polyline6" />
	<line
   class="st0"
   x1="414.20947"
   y1="351.65152"
   x2="297.43057"
   y2="351.65152"
   id="line8" />
	<polyline
   class="st0"
   points="530.988403,101.100327 530.988403,351.65152 414.209473,351.65152  "
   id="polyline10" />
	<g
   id="g20">
		<g
   id="g18">
			<line
   class="st0"
   x1="180.65169"
   y1="351.65152"
   x2="180.65169"
   y2="346.65152"
   id="line12" />
			<line
   class="st1"
   x1="180.65169"
   y1="341.78311"
   x2="180.65169"
   y2="110.53452"
   id="line14" />
			<line
   class="st0"
   x1="180.65169"
   y1="108.10033"
   x2="180.65169"
   y2="103.10033"
   id="line16" />
		</g>
	</g>
	<g
   id="g30">
		<g
   id="g28">
			<line
   class="st0"
   x1="297.43057"
   y1="351.65152"
   x2="297.43057"
   y2="346.65152"
   id="line22" />
			<line
   class="st1"
   x1="297.43057"
   y1="341.78311"
   x2="297.43057"
   y2="110.53452"
   id="line24" />
			<line
   class="st0"
   x1="297.43057"
   y1="108.10033"
   x2="297.43057"
   y2="103.10033"
   id="line26" />
		</g>
	</g>
	<g
   id="g40">
		<g
   id="g38">
			<line
   class="st0"
   x1="414.20947"
   y1="351.65152"
   x2="414.20947"
   y2="346.65152"
   id="line32" />
			<line
   class="st1"
   x1="414.20947"
   y1="341.78311"
   x2="414.20947"
   y2="110.53452"
   id="line34" />
			<line
   class="st0"
   x1="414.20947"
   y1="108.10033"
   x2="414.20947"
   y2="103.10033"
   id="line36" />
		</g>
	</g>
</g>
<g
   id="Ebene_3"
   transform="translate(-63.372787,-59.150875)">
	<rect
   x="63.872787"
   y="59.650875"
   class="st2"
   width="116.7789"
   height="41.102364"
   id="rect43" />
	<rect
   x="180.65169"
   y="59.650875"
   class="st2"
   width="116.7789"
   height="41.102364"
   id="rect45" />
	<rect
   x="297.43057"
   y="59.650875"
   class="st2"
   width="116.7789"
   height="41.102364"
   id="rect47" />
	<rect
   x="414.20947"
   y="59.650875"
   class="st2"
   width="116.7789"
   height="41.102364"
   id="rect49" />
</g>
<g
   id="Figure"
   transform="translate(-63.372787,-59.150875)">
	<text
   transform="translate(338.86691,72.42746)"
   id="text58"><tspan
     x="0"
     y="0"
     class="st3 st4"
     id="tspan52">Docker </tspan><tspan
     x="-29.179688"
     y="11"
     class="st5 st4"
     id="tspan54">documents software  </tspan><tspan
     x="-10.561523"
     y="22"
     class="st5 st4"
     id="tspan56">environment</tspan></text>
	<text
   transform="translate(442.87457,72.427429)"
   id="text66"><tspan
     x="0"
     y="0"
     class="st3 st4"
     id="tspan60">R Markdown </tspan><tspan
     x="-13.911133"
     y="11"
     class="st5 st4"
     id="tspan62">generates dynamic </tspan><tspan
     x="5.2661128"
     y="22"
     class="st5 st4"
     id="tspan64">documents</tspan></text>
	<text
   transform="translate(115.31873,72.427124)"
   id="text74"><tspan
     x="0"
     y="0"
     class="st3 st4"
     id="tspan68">Git</tspan><tspan
     x="-6.391602"
     y="11"
     class="st5 st4"
     id="tspan70">tracks</tspan><tspan
     x="-11.674805"
     y="22"
     class="st5 st4"
     id="tspan72">versions</tspan></text>
	<text
   transform="translate(226.53355,72.427139)"
   id="text82"><tspan
     x="0"
     y="0"
     class="st3 st4"
     id="tspan76">Make</tspan><tspan
     x="-8.0615234"
     y="11"
     class="st5 st4"
     id="tspan78">manages</tspan><tspan
     x="-18.630371"
     y="22"
     class="st5 st4"
     id="tspan80">dependencies</tspan></text>
	<line
   class="st6"
   x1="88.460724"
   y1="238.12967"
   x2="96.723663"
   y2="238.12967"
   id="line84" />
	<line
   class="st7"
   x1="88.460724"
   y1="342.50732"
   x2="88.460724"
   y2="132.75928"
   id="line86" />
	<line
   class="st7"
   x1="88.46077"
   y1="145.73409"
   x2="96.723717"
   y2="145.73409"
   id="line88" />
	<line
   class="st7"
   x1="88.460724"
   y1="198.73389"
   x2="96.723663"
   y2="198.73389"
   id="line90" />
	<line
   class="st7"
   x1="88.460724"
   y1="211.86581"
   x2="96.723663"
   y2="211.86581"
   id="line92" />
	<line
   class="st7"
   x1="88.460724"
   y1="251.2616"
   x2="96.723663"
   y2="251.2616"
   id="line94" />
	<line
   class="st7"
   x1="88.460724"
   y1="224.99774"
   x2="96.723663"
   y2="224.99774"
   id="line96" />
	<line
   class="st7"
   x1="88.460724"
   y1="264.39352"
   x2="96.723663"
   y2="264.39352"
   id="line98" />
	<g
   id="g108">
		<line
   class="st7"
   x1="88.460724"
   y1="316.24347"
   x2="96.723663"
   y2="316.24347"
   id="line100" />
		<line
   class="st7"
   x1="88.460724"
   y1="329.3754"
   x2="96.723663"
   y2="329.3754"
   id="line102" />
		<line
   class="st7"
   x1="88.460724"
   y1="303.11154"
   x2="96.723663"
   y2="303.11154"
   id="line104" />
		<line
   class="st7"
   x1="88.460724"
   y1="342.50732"
   x2="96.723663"
   y2="342.50732"
   id="line106" />
	</g>
	<g
   id="g112">
		<text
   transform="translate(101.48046,149.48292)"
   class="st5 st8"
   id="text110">data/</text>
	</g>
	<g
   id="g116">
		<text
   transform="translate(109.38232,173.27913)"
   class="st9 st5 st8"
   id="text114">iris_prepped.csv</text>
	</g>
	<g
   id="g5847_2_"
   transform="matrix(1.4702645,0,0,1.4702645,-90.428271,-65.954503)">
		<g
   id="g120">
			<text
   transform="matrix(0.680149,0,0,0.680149,135.90106,170.80714)"
   class="st5 st8"
   id="text118">...</text>
		</g>
	</g>
	<g
   id="g125">
		<text
   transform="translate(109.38232,161.38103)"
   class="st5 st8"
   id="text123">iris.csv</text>
	</g>
	<g
   id="g129">
		<text
   transform="translate(101.48046,202.14015)"
   class="st5 st8"
   id="text127">LICENSE.md</text>
	</g>
	<g
   id="g133">
		<text
   transform="translate(101.48045,214.94221)"
   class="st5 st8"
   id="text131">Dockerfile</text>
	</g>
	<g
   id="g137">
		<text
   transform="translate(101.48045,227.7438)"
   class="st5 st8"
   id="text135">Makefile</text>
	</g>
	<g
   id="g141">
		<text
   transform="translate(101.48045,240.54588)"
   class="st9 st5 st8"
   id="text139">manuscript.pdf</text>
	</g>
	<g
   id="g145">
		<text
   transform="translate(101.48045,266.15002)"
   class="st5 st8"
   id="text143">R/</text>
	</g>
	<g
   id="g149">
		<text
   transform="translate(101.48045,253.34795)"
   class="st5 st8"
   id="text147">manuscript.Rmd</text>
	</g>
	<g
   id="g153">
		<text
   transform="translate(101.48046,342.96143)"
   class="st5 st8"
   id="text151">...</text>
	</g>
	<g
   id="g157">
		<text
   transform="translate(108.59032,291.75369)"
   class="st5 st8"
   id="text155">...</text>
	</g>
	<g
   id="g161">
		<text
   transform="translate(108.59032,278.9516)"
   class="st5 st8"
   id="text159">prepare_data.R</text>
	</g>
	<g
   id="g165">
		<text
   transform="translate(101.48045,304.5556)"
   class="st5 st8"
   id="text163">reproducible.Rproj</text>
	</g>
	<g
   id="g169">
		<text
   transform="translate(101.48045,317.35754)"
   class="st5 st8"
   id="text167">.git/</text>
	</g>
	<g
   id="g173">
		<text
   transform="translate(101.48045,330.15949)"
   class="st5 st8"
   id="text171">.gitignore</text>
	</g>
	<line
   class="st7"
   x1="96.723717"
   y1="290.08646"
   x2="96.723717"
   y2="264.39352"
   id="line175" />
	<line
   class="st7"
   x1="96.723717"
   y1="277.56631"
   x2="104.98666"
   y2="277.56631"
   id="line177" />
	<line
   class="st7"
   x1="96.723717"
   y1="290.69824"
   x2="104.98666"
   y2="290.69824"
   id="line179" />
	<line
   class="st7"
   x1="96.723717"
   y1="184.4959"
   x2="104.98666"
   y2="184.4959"
   id="line181" />
	<line
   class="st7"
   x1="96.723717"
   y1="171.91258"
   x2="104.98666"
   y2="171.91258"
   id="line183" />
	<line
   class="st7"
   x1="96.723717"
   y1="158.74594"
   x2="104.98666"
   y2="158.74594"
   id="line185" />
	<line
   class="st7"
   x1="96.723717"
   y1="184.48802"
   x2="96.723717"
   y2="146.48015"
   id="line187" />
	<text
   transform="rotate(-90,103.90342,28.161526)"
   class="st9 st5 st8"
   id="text189">Time</text>
	<line
   class="st7"
   x1="189.38455"
   y1="276.56631"
   x2="189.38455"
   y2="158.8183"
   id="line191" />
	<line
   class="st7"
   x1="177.1216"
   y1="249.16779"
   x2="189.38455"
   y2="249.16779"
   id="line193" />
	<line
   class="st7"
   x1="177.1216"
   y1="171.91258"
   x2="189.38455"
   y2="171.91258"
   id="line195" />
	<line
   class="st7"
   x1="177.1216"
   y1="276.56631"
   x2="189.38455"
   y2="276.56631"
   id="line197" />
	<line
   class="st7"
   x1="145.1216"
   y1="158.8183"
   x2="189.38455"
   y2="158.8183"
   id="line199" />
	<g
   id="g213">
		<polygon
   class="st10"
   points="79.139923,110.15131 79.139923,111.59815 79.139923,115.72944 79.139923,124.00446 96.147797,124.00446 96.147797,111.59815 83.743866,111.59815 83.743866,110.15131 "
   id="polygon201" />
		<polygon
   class="st11"
   points="82.105202,114.09272 82.105202,115.53956 82.105202,119.67084 82.105202,127.94587 99.113075,127.94587 99.113075,115.53956 86.709145,115.53956 86.709145,114.09272 "
   id="polygon203" />
		<polygon
   class="st12"
   points="85.070473,118.03413 85.070473,119.48096 85.070473,123.61225 85.070473,131.88727 102.07835,131.88727 102.07835,119.48096 89.674416,119.48096 89.674416,118.03413 "
   id="polygon205" />
		<g
   id="g211">
			<rect
   x="88.035744"
   y="123.42237"
   class="st13"
   width="17.007874"
   height="12.4063"
   id="rect207" />
			<rect
   x="88.035744"
   y="121.97554"
   class="st13"
   width="4.6039448"
   height="5.5781498"
   id="rect209" />
		</g>
	</g>
	<g
   id="g241">
		<text
   transform="translate(205.63069,207.2486)"
   class="st3 st8"
   id="text215">B depends on A</text>
		<text
   transform="matrix(0.89708,0,0,1,237.52455,192.2751)"
   class="st3 st8"
   id="text217">=</text>
		<g
   id="g239">
			<g
   id="g221">
				<text
   transform="translate(265.23135,178.05305)"
   class="st3 st8"
   id="text219">B</text>
			</g>
			<g
   id="g237">
				<g
   id="g225">
					<text
   transform="translate(208.97206,178.17366)"
   class="st3 st8"
   id="text223">A</text>
				</g>
				<g
   id="g235">
					<g
   id="g233">
						<line
   class="st7"
   x1="217.61864"
   y1="175.46994"
   x2="257.12161"
   y2="175.46994"
   id="line227" />
						<g
   id="g231">
							<polygon
   points="256.10031,171.97951 256.10031,178.96037 262.14462,175.46994 "
   id="polygon229" />
						</g>
					</g>
				</g>
			</g>
		</g>
	</g>
	<g
   id="g251">
		<g
   id="g249">
			<line
   class="st15"
   x1="191.23799"
   y1="261.06711"
   x2="424.09268"
   y2="261.06711"
   id="line243" />
			<g
   id="g247">
				<polygon
   points="423.26108,258.22492 423.26108,263.90933 428.18286,261.06711 "
   id="polygon245" />
			</g>
		</g>
	</g>
	<rect
   x="306.21375"
   y="157.66725"
   class="st16"
   width="99.212601"
   height="181.41733"
   id="rect253" />
	<rect
   x="314.71768"
   y="165.80638"
   class="st17"
   width="82.204727"
   height="147.40158"
   id="rect255" />
	<rect
   x="323.22162"
   y="173.33919"
   class="st9"
   width="65.196854"
   height="53.858269"
   id="rect257" />
	<rect
   x="330.30823"
   y="180.08488"
   class="st18"
   width="51.023621"
   height="25.51181"
   id="rect259" />
	<rect
   x="323.22162"
   y="262.59418"
   class="st9"
   width="65.196854"
   height="25.51181"
   id="rect261" />
	<rect
   x="323.22162"
   y="232.13991"
   class="st9"
   width="65.196854"
   height="25.51181"
   id="rect263" />
	<g
   id="g267">
		<text
   transform="translate(331.06683,304.05756)"
   class="st5 st8"
   id="text265">Virtual Linux</text>
	</g>
	<g
   id="g271">
		<text
   transform="translate(320.55603,329.3075)"
   class="st5 st8"
   id="text269">Operating system</text>
	</g>
	<g
   id="g275">
		<text
   transform="translate(343.31317,248.12054)"
   class="st5 st8"
   id="text273">LaTex</text>
	</g>
	<g
   id="g279">
		<text
   transform="translate(336.0578,196.06554)"
   class="st5 st8"
   id="text277">Packages</text>
	</g>
	<g
   id="g283">
		<text
   transform="translate(336.81342,220.08563)"
   class="st5 st8"
   id="text281">R version</text>
	</g>
	<text
   transform="translate(342.81488,272.57495)"
   id="text289"><tspan
     x="0"
     y="0"
     class="st5 st8"
     id="tspan285">Some  </tspan><tspan
     x="-4.0014648"
     y="10.799805"
     class="st5 st8"
     id="tspan287">software</tspan></text>
	<g
   id="g319">
		<rect
   x="430.21155"
   y="157.66725"
   class="st19"
   width="85.039368"
   height="110.55118"
   id="rect291" />
		<g
   id="g295">
			<text
   transform="translate(433.92191,263.44675)"
   class="st5 st8"
   id="text293">manuscript.pdf</text>
		</g>
		<g
   id="g299">
			<text
   transform="translate(433.92191,169.92332)"
   class="st5 st8"
   id="text297">Some text.</text>
		</g>
		<g
   id="g317">
			<path
   id="rect13099"
   class="st20"
   d="m 504.98025,230.29417 h -52.0895 v -53.8703" />
			<ellipse
   id="path13102"
   cx="467.93881"
   cy="188.34851"
   rx="2.8178"
   ry="2.7026441" />
			<ellipse
   id="path13104"
   cx="487.15887"
   cy="202.04277"
   rx="2.8178"
   ry="2.7026441" />
			<ellipse
   id="path13106"
   cx="491.552"
   cy="180.97469"
   rx="2.8178"
   ry="2.7026441" />
			<ellipse
   id="path13108"
   cx="474.52856"
   cy="200.46265"
   rx="2.8178"
   ry="2.7026441" />
			<ellipse
   id="path13110"
   cx="470.95911"
   cy="219.42393"
   rx="2.8178"
   ry="2.7026441" />
			<ellipse
   id="path13112"
   cx="464.09482"
   cy="207.8365"
   rx="2.8178"
   ry="2.7026441" />
			<ellipse
   id="path13114"
   cx="487.98257"
   cy="215.73703"
   rx="2.8178"
   ry="2.7026441" />
			<g
   id="g311">
				<text
   transform="translate(453.66473,240.43944)"
   class="st5 st8"
   id="text309">Petal.Length</text>
			</g>
			<g
   id="g315">
				<text
   transform="rotate(-90,337.71031,-111.34175)"
   class="st5 st8"
   id="text313">Petal.Width</text>
			</g>
		</g>
	</g>
</g>
</svg>
